<svg width="243" height="48" viewBox="0 0 243 48" fill="none" xmlns="http://www.w3.org/2000/svg">
<path d="M110.688 0.0107422V15.2703L108.34 13.2168L98.6347 4.70764L93.2783 0.016101H83.4663V22.4497H92.2274V6.56281L99.6267 13.2221L104.656 17.7528L109.873 22.4497H110.913H118.87V2.54149C117.883 1.55493 117.331 1.00266 116.345 0.016101H110.693L110.688 0.0107422Z" fill="#D6D6D6"/>
<path d="M238.963 0.0107422H213.457C211.875 1.59246 210.996 2.47178 209.414 4.0535V22.4336H217.349V5.59233H217.366V5.56552C217.392 5.08296 217.794 4.69692 218.272 4.69692H234.137C234.647 4.69692 235.059 5.10977 235.059 5.61913V11.7852H219.51L223.875 16.4606H235.059V22.4336H243V4.0535C241.429 2.47178 240.539 1.59246 238.968 0.0107422H238.963Z" fill="#D6D6D6"/>
<path d="M146.628 0.0107299H138.671H125.556V3.31893C126.092 3.86047 126.398 4.16073 126.934 4.69691L138.671 4.70763V10.9326H138.682V22.439H146.628V4.70227H159.405V1.38334C158.863 0.841801 158.563 0.541547 158.027 0.00537109H146.628V0.0107299Z" fill="#D6D6D6"/>
<path d="M3.01318 0.0107258C2.02661 0.997289 1.47436 1.54955 0.487793 2.53611V5.60303H0.493152V17.8386L7.9031 22.128C8.25161 22.3317 8.64838 22.439 9.05588 22.439H32.8835V17.7635H9.35614C8.84677 17.7635 8.43391 17.3506 8.43391 16.8413V5.59768C8.43391 5.08831 8.84677 4.67545 9.35614 4.67545H32.8835V0H3.01318V0.0107258Z" fill="#D6D6D6"/>
<path d="M49.9232 0.0107258H44.5024C43.5159 0.997289 42.9636 1.54955 41.9771 2.53611V17.8439L49.387 22.1333C49.7355 22.3371 50.1323 22.4443 50.5398 22.4443H74.3674V17.7689H50.84C50.3307 17.7689 49.9178 17.356 49.9178 16.8466V13.5599H66.861V8.88443H49.9178V5.59768H49.9232V5.5387C49.9553 5.05614 50.3468 4.67545 50.8347 4.67545H74.3621V0H49.9178L49.9232 0.0107258Z" fill="#D6D6D6"/>
<path d="M192.358 0.0911653C192.165 0.0375477 191.967 0.0107422 191.763 0.0107422H166.483V22.4443H174.429V4.70764H189.597C190.278 4.70764 190.83 5.2599 190.83 5.94084V11.9835H184.541C183.999 13.1631 183.935 13.3079 183.394 14.4875L190.734 22.4443H200.305V22.4122L192.702 13.4687C192.224 12.8629 192.653 11.9782 193.425 11.9782H200.31V2.53613C199.323 1.54956 198.771 0.997306 197.784 0.0107422H192.358V0.0911653Z" fill="#D6D6D6"/>
<path d="M14.9003 43.7788C14.9003 45.9395 13.5438 47.028 10.8254 47.028H4.07493C1.36188 47.028 0 45.9449 0 43.7788V36.905C0 34.7388 1.35652 33.6558 4.07493 33.6558H10.8254C13.5384 33.6558 14.9003 34.7388 14.9003 36.905V37.8379C14.9003 38.1489 14.7073 38.299 14.3212 38.299H11.7583C11.3723 38.299 11.1739 38.1436 11.1739 37.8379V37.2803C11.1739 36.5994 10.7503 36.2562 9.8978 36.2562H5.00788C4.15 36.2562 3.72642 36.5994 3.72642 37.2803V43.4088C3.72642 44.0897 4.15 44.4329 5.00788 44.4329H9.8978C10.7503 44.4329 11.1739 44.0897 11.1739 43.4088V42.2024H8.14987C7.75846 42.2024 7.56544 42.0469 7.56544 41.7413V40.0684C7.56544 39.7574 7.75846 39.6073 8.14987 39.6073H14.3212C14.7073 39.6073 14.9003 39.7628 14.9003 40.0684V43.7841V43.7788Z" fill="#D6D6D6"/>
<path d="M53.076 39.5053C53.076 40.213 52.9366 40.7653 52.6685 41.1674C52.395 41.5696 52.1055 41.8752 51.7945 42.0843C51.4031 42.3309 50.9795 42.4971 50.5131 42.5668L53.1939 46.3737C53.2851 46.5131 53.2958 46.6203 53.2154 46.7061C53.1403 46.7919 53.017 46.8348 52.8454 46.8348H50.0519C49.816 46.8348 49.6284 46.7919 49.4782 46.7061C49.3281 46.6203 49.2101 46.5077 49.119 46.3737L46.674 42.7545H42.5991V46.3737C42.5991 46.6847 42.4061 46.8348 42.0147 46.8348H39.4571C39.0711 46.8348 38.8727 46.6793 38.8727 46.3737V34.3044C38.8727 33.9934 39.0711 33.8433 39.4571 33.8433H49.001C51.7194 33.8433 53.076 34.9263 53.076 37.0925V39.5053ZM42.5991 36.4437V40.1594H48.0681C48.9206 40.1594 49.3496 39.8163 49.3496 39.1353V37.4624C49.3496 36.7815 48.9206 36.4384 48.0681 36.4384H42.5991V36.4437Z" fill="#D6D6D6"/>
<path d="M91.8148 43.7788C91.8148 45.9395 90.4582 47.028 87.7398 47.028H80.6409C77.9278 47.028 76.5659 45.9449 76.5659 43.7788V36.905C76.5659 34.7388 77.9224 33.6558 80.6409 33.6558H87.7398C90.4582 33.6558 91.8148 34.7388 91.8148 36.905V43.7788ZM88.0883 37.2803C88.0883 36.5994 87.6594 36.2562 86.8069 36.2562H81.5738C80.7159 36.2562 80.2923 36.5994 80.2923 37.2803V43.4088C80.2923 44.0897 80.7159 44.4329 81.5738 44.4329H86.8069C87.6594 44.4329 88.0883 44.0897 88.0883 43.4088V37.2803Z" fill="#D6D6D6"/>
<path d="M115.787 34.3044C115.787 33.9934 115.986 33.8433 116.372 33.8433H118.929C119.321 33.8433 119.514 33.9988 119.514 34.3044V43.4033C119.514 44.0842 119.942 44.4274 120.795 44.4274H125.449C126.302 44.4274 126.725 44.0842 126.725 43.4033V34.3044C126.725 33.9934 126.923 33.8433 127.31 33.8433H129.872C130.259 33.8433 130.452 33.9988 130.452 34.3044V43.7732C130.452 45.934 129.095 47.0225 126.377 47.0225H119.862C117.144 47.0225 115.787 45.9394 115.787 43.7732V34.3044Z" fill="#D6D6D6"/>
<path d="M158.386 43.0333V46.3737C158.386 46.6847 158.193 46.8348 157.802 46.8348H155.244C154.858 46.8348 154.66 46.6793 154.66 46.3737V34.3044C154.66 33.9934 154.858 33.8433 155.244 33.8433H164.788C167.507 33.8433 168.863 34.9263 168.863 37.0925V39.7841C168.863 41.9502 167.507 43.0333 164.788 43.0333H158.386ZM158.386 36.4437V40.4382H163.855C164.708 40.4382 165.137 40.0951 165.137 39.4141V37.4678C165.137 36.7869 164.708 36.4437 163.855 36.4437H158.386Z" fill="#D6D6D6"/>
</svg>
