<svg width="67" height="29" viewBox="0 0 67 29" fill="none" xmlns="http://www.w3.org/2000/svg">
<g clip-path="url(#clip0_4_56)">
<path d="M40.2273 17.8327V20.9629L39.753 20.536L37.7848 18.7812L36.6939 17.809H34.7257V22.4094H36.5042V19.1607L37.9982 20.536L39.0179 21.4609L40.0613 22.4331H40.2747H41.8872V20.2041V18.3544C41.6975 18.141 41.5789 18.0461 41.3655 17.8327H40.2747H40.2273Z" fill="#D1D3D5"/>
<path d="M47.4836 17.8327H45.8711H43.2152V18.4967C43.3337 18.6152 43.3812 18.6627 43.4997 18.7812H45.8711V20.0618V22.4094H47.4836V20.0618V18.7812H50.0684V18.0935C49.9499 17.975 49.9024 17.9275 49.7839 17.809H47.4836V17.8327Z" fill="#D1D3D5"/>
<path d="M18.4581 17.8327C18.2684 18.0461 18.1498 18.141 17.9364 18.3544V18.9709V21.4846L19.4304 22.362C19.5015 22.4094 19.5726 22.4331 19.6675 22.4331H24.4814V21.4846H19.7386C19.6438 21.4846 19.5489 21.3897 19.5489 21.2949V18.9709C19.5489 18.8761 19.6438 18.7812 19.7386 18.7812H24.4814V17.8327H19.5489H18.4581Z" fill="#D1D3D5"/>
<path d="M27.9436 17.8327H26.8527C26.663 18.0461 26.5445 18.141 26.331 18.3544V18.8049V18.9709V21.4846L27.825 22.362C27.8961 22.4094 27.9673 22.4331 28.0621 22.4331H32.876V21.4846H28.1333C28.0384 21.4846 27.9436 21.3897 27.9436 21.2949V20.6309H31.3583V19.6824H27.9436V18.9709V18.9472C27.9436 18.8524 28.0384 18.7812 28.1333 18.7812H32.876V17.8327H27.9436Z" fill="#D1D3D5"/>
<path d="M56.732 17.8327C56.6846 17.8327 56.6608 17.809 56.6134 17.809H51.515V22.4094H53.1275V18.7812H56.1866C56.3288 18.7812 56.4237 18.8998 56.4237 19.0421V20.2752H55.1432C55.0246 20.5123 55.0246 20.536 54.906 20.7969L56.4 22.4331H58.3445L56.8031 20.6072C56.7083 20.4886 56.8031 20.2989 56.9454 20.2989H58.3445V18.9709V18.7575V18.3307C58.1548 18.1173 58.0362 18.0224 57.8228 17.809L56.732 17.8327Z" fill="#D1D3D5"/>
<path d="M66.1463 17.8327H61.0004C60.6922 18.1647 60.5024 18.3307 60.1942 18.6627V22.4331H61.8067V18.9709C61.8067 18.8761 61.9016 18.8049 61.9964 18.8049H65.1978C65.2926 18.8049 65.3875 18.8998 65.3875 18.9947V20.2515H62.2573L63.1347 21.2H65.3875V22.4331H67V18.6627C66.6443 18.3307 66.4546 18.141 66.1463 17.8327Z" fill="#D1D3D5"/>
<path d="M21.3986 26.6305C21.28 26.5356 21.114 26.4408 20.8769 26.3933L19.2406 25.9902C19.0509 25.9428 18.9798 25.8716 18.9798 25.7531V25.7056C18.9798 25.5396 19.0984 25.4448 19.3118 25.4448H20.2603C20.4738 25.4448 20.5923 25.5396 20.5923 25.7056V25.8479C20.5923 25.9191 20.6398 25.9665 20.7346 25.9665H21.3749C21.4697 25.9665 21.5172 25.9191 21.5172 25.8479V25.6108C21.5172 25.0654 21.1615 24.7808 20.4738 24.7808H19.0509C18.3632 24.7808 18.0312 25.0654 18.0312 25.6108V25.8242C18.0312 26.0376 18.0787 26.1799 18.1972 26.2748C18.3158 26.3696 18.5055 26.4645 18.7189 26.5119L20.3552 26.915C20.5449 26.9625 20.616 27.0336 20.616 27.1522V27.247C20.616 27.413 20.4975 27.5079 20.284 27.5079H19.1932C18.9798 27.5079 18.8612 27.413 18.8612 27.247V27.1047C18.8612 27.0336 18.8138 26.9862 18.7189 26.9862H18.0787C17.9838 26.9862 17.9364 27.0336 17.9364 27.1047V27.3419C17.9364 27.8873 18.2921 28.1719 18.9798 28.1719H20.5449C21.2326 28.1719 21.5883 27.8873 21.5883 27.3419V27.081C21.5646 26.8913 21.5172 26.7253 21.3986 26.6305Z" fill="#D1D3D5"/>
<path d="M30.5758 24.8045H27.2559C27.161 24.8045 27.1136 24.8519 27.1136 24.9231V25.3499C27.1136 25.4211 27.161 25.4685 27.2559 25.4685H28.4416V28.0059C28.4416 28.077 28.489 28.1244 28.5838 28.1244H29.2241C29.319 28.1244 29.3664 28.077 29.3664 28.0059V25.4685H30.5521C30.6469 25.4685 30.6944 25.4211 30.6944 25.3499V24.9231C30.7418 24.8519 30.6944 24.8045 30.5758 24.8045Z" fill="#D1D3D5"/>
<path d="M39.753 27.4604H37.429V26.7727H39.1838C39.2787 26.7727 39.3261 26.7253 39.3261 26.6542V26.2273C39.3261 26.1562 39.2787 26.1088 39.1838 26.1088H37.429V25.4685H39.7055C39.8004 25.4685 39.8478 25.4211 39.8478 25.3499V24.9231C39.8478 24.8519 39.8004 24.8045 39.7055 24.8045H36.6228C36.5279 24.8045 36.4805 24.8519 36.4805 24.9231V28.0059C36.4805 28.077 36.5279 28.1244 36.6228 28.1244H39.753C39.8478 28.1244 39.8953 28.077 39.8953 28.0059V27.579C39.8953 27.5079 39.8478 27.4604 39.753 27.4604Z" fill="#D1D3D5"/>
<path d="M49.025 27.4604H46.7011V26.7727H48.4559C48.5508 26.7727 48.5982 26.7253 48.5982 26.6542V26.2273C48.5982 26.1562 48.5508 26.1088 48.4559 26.1088H46.7011V25.4685H48.9776C49.0725 25.4685 49.1199 25.4211 49.1199 25.3499V24.9231C49.1199 24.8519 49.0725 24.8045 48.9776 24.8045H45.8948C45.8 24.8045 45.7525 24.8519 45.7525 24.9231V28.0059C45.7525 28.077 45.8 28.1244 45.8948 28.1244H49.025C49.1199 28.1244 49.1673 28.077 49.1673 28.0059V27.579C49.1673 27.5079 49.1199 27.4604 49.025 27.4604Z" fill="#D1D3D5"/>
<path d="M58.1785 27.4604H55.9731V24.9231C55.9731 24.8519 55.9257 24.8045 55.8309 24.8045H55.1906C55.0957 24.8045 55.0483 24.8519 55.0483 24.9231V28.0059C55.0483 28.077 55.0957 28.1244 55.1906 28.1244H58.2022C58.2971 28.1244 58.3445 28.077 58.3445 28.0059V27.579C58.3208 27.5079 58.2734 27.4604 58.1785 27.4604Z" fill="#D1D3D5"/>
<path d="M24.4339 8.58435L20.8295 14.3942C20.7583 14.4891 20.6635 14.5365 20.5449 14.5365H16.7981C15.9207 14.5365 15.1145 14.987 14.6402 15.7459L13.4782 17.6193C13.4071 17.7141 13.3122 17.7615 13.1937 17.7615H6.00841C5.74756 17.7615 5.60528 17.477 5.72385 17.2636L7.33638 14.7025C7.40752 14.6076 7.50237 14.5602 7.62094 14.5602H12.9328C14.4742 14.5602 15.897 13.7539 16.7033 12.4497L18.6715 9.27205C19.0035 8.75034 18.6241 8.08636 18.0312 8.08636H12.0317C11.7708 8.08636 11.6286 7.8018 11.7471 7.58837L13.3834 5.00358C13.4545 4.90873 13.5494 4.8613 13.6679 4.8613H20.8532C21.114 4.8613 21.2563 5.14587 21.1377 5.35929L20.1655 6.90068C19.8335 7.42238 20.2129 8.08636 20.8057 8.08636H24.1731C24.4102 8.08636 24.5762 8.37093 24.4339 8.58435Z" fill="#D1D3D5"/>
<path d="M0.0562832 9.20091L3.66076 3.39106C3.7319 3.2962 3.82676 3.24877 3.94533 3.24877H7.69209C8.56949 3.24877 9.37576 2.79821 9.85003 2.03938L11.012 0.142282C11.0594 0.0474274 11.178 0 11.2729 0H18.4581C18.719 0 18.8612 0.284564 18.7427 0.497987L17.1538 3.08278C17.0827 3.17763 16.9879 3.22506 16.8693 3.22506H11.5574C10.016 3.22506 8.59321 4.03133 7.78694 5.33558L5.81871 8.51321C5.48672 9.03491 5.86613 9.69889 6.45898 9.69889H12.4348C12.6957 9.69889 12.838 9.98346 12.7194 10.1969L11.1069 12.7817C11.0357 12.8765 10.9409 12.924 10.8223 12.924H3.63705C3.3762 12.924 3.23392 12.6394 3.35248 12.426L4.32475 10.8846C4.65674 10.3629 4.27732 9.69889 3.68448 9.69889H0.317134C0.0562832 9.69889 -0.0859989 9.41433 0.0562832 9.20091Z" fill="#E25B27"/>
</g>
<defs>
<clipPath id="clip0_4_56">
<rect width="67" height="29" fill="white"/>
</clipPath>
</defs>
</svg>
