<svg width="82" height="56" viewBox="0 0 82 56" fill="none" xmlns="http://www.w3.org/2000/svg">
<path d="M0 0H82L55.0263 56H0V0Z" fill="#142B71"/>
<path d="M22 27L21 27L21 29L22 29L22 27ZM49.7071 28.7071C50.0976 28.3166 50.0976 27.6834 49.7071 27.2929L43.3431 20.9289C42.9526 20.5384 42.3195 20.5384 41.9289 20.9289C41.5384 21.3195 41.5384 21.9526 41.9289 22.3431L47.5858 28L41.9289 33.6569C41.5384 34.0474 41.5384 34.6805 41.9289 35.0711C42.3195 35.4616 42.9526 35.4616 43.3431 35.0711L49.7071 28.7071ZM22 29L49 29L49 27L22 27L22 29Z" fill="white"/>
</svg>
