<svg width="47" height="32" viewBox="0 0 47 32" fill="none" xmlns="http://www.w3.org/2000/svg">
<path d="M47 32L3.8147e-06 32L15.4605 -2.11486e-06L47 -7.62939e-06L47 32Z" fill="#E05C26"/>
<path d="M36 15L37 15L37 17L36 17L36 15ZM20.2929 16.7071C19.9024 16.3166 19.9024 15.6834 20.2929 15.2929L26.6569 8.92893C27.0474 8.53841 27.6805 8.53841 28.0711 8.92893C28.4616 9.31946 28.4616 9.95262 28.0711 10.3431L22.4142 16L28.0711 21.6569C28.4616 22.0474 28.4616 22.6805 28.0711 23.0711C27.6805 23.4616 27.0474 23.4616 26.6569 23.0711L20.2929 16.7071ZM36 17L21 17L21 15L36 15L36 17Z" fill="white"/>
</svg>