<svg width="82" height="56" viewBox="0 0 82 56" fill="none" xmlns="http://www.w3.org/2000/svg">
<path d="M82 56L-7.62939e-06 56L26.9737 5.80641e-06L82 -3.8147e-06L82 56Z" fill="#E05C26"/>
<path d="M63 27L64 27L64 29L63 29L63 27ZM35.2929 28.7071C34.9024 28.3166 34.9024 27.6834 35.2929 27.2929L41.6569 20.9289C42.0474 20.5384 42.6805 20.5384 43.0711 20.9289C43.4616 21.3195 43.4616 21.9526 43.0711 22.3431L37.4142 28L43.0711 33.6569C43.4616 34.0474 43.4616 34.6805 43.0711 35.0711C42.6805 35.4616 42.0474 35.4616 41.6569 35.0711L35.2929 28.7071ZM63 29L36 29L36 27L63 27L63 29Z" fill="white"/>
</svg>
