<svg width="53" height="53" viewBox="0 0 53 53" fill="none" xmlns="http://www.w3.org/2000/svg">
<path d="M53 0H6.81777C4.04805 2.56175 2.55666 4.05611 0 6.83134V53H46.1822C48.7389 50.4382 50.2303 48.9439 53 46.1687V0Z" fill="#E05C26"/>
<path d="M12.8743 35.8649L10.4534 44.7L19.4948 42.3264L12.8743 35.8649Z" fill="white"/>
<path d="M27.5 10.3C18.0013 10.3 10.3 18.0013 10.3 27.5C10.3 36.9987 18.0013 44.7 27.5 44.7C36.9988 44.7 44.7001 36.9987 44.7001 27.5C44.7001 18.0013 36.9988 10.3 27.5 10.3ZM35.9911 33.4383C35.6371 34.4316 33.897 35.3919 33.1173 35.4593C32.3304 35.5324 31.5965 35.8133 28.0031 34.3986C23.6687 32.6915 20.9354 28.2511 20.7218 27.9644C20.5082 27.6849 18.9875 25.6567 18.9875 23.5641C18.9875 21.4642 20.0883 20.4365 20.4738 20.0094C20.8666 19.5823 21.3267 19.4762 21.6133 19.4762C21.8928 19.4762 22.1795 19.4762 22.4275 19.4891C22.7342 19.4963 23.0682 19.5163 23.3878 20.223C23.7676 21.0629 24.5947 23.1699 24.7007 23.3835C24.8068 23.597 24.8813 23.8507 24.7337 24.1302C24.5932 24.4169 24.5202 24.5903 24.3138 24.844C24.1002 25.0906 23.8665 25.3973 23.673 25.5836C23.4595 25.7972 23.2402 26.0308 23.4867 26.4565C23.7332 26.8822 24.5875 28.2769 25.8531 29.4035C27.48 30.8569 28.8531 31.3041 29.2803 31.5176C29.7074 31.7312 29.9539 31.6982 30.2005 31.4116C30.4542 31.1321 31.2668 30.1717 31.5535 29.7446C31.833 29.3175 32.1197 29.3906 32.5067 29.531C32.8994 29.6715 34.9935 30.7049 35.4206 30.9185C35.8478 31.1321 36.1273 31.2381 36.2348 31.4116C36.3451 31.5907 36.3451 32.4436 35.9911 33.4383Z" fill="white"/>
</svg>
