<svg width="16" height="16" viewBox="0 0 16 16" fill="none" xmlns="http://www.w3.org/2000/svg">
<path d="M11.4286 15.25H4.57143C2.46089 15.25 0.75 13.5387 0.75 11.4286V4.57143C0.75 2.46084 2.46084 0.75 4.57143 0.75H11.4286C13.5387 0.75 15.25 2.46089 15.25 4.57143V11.4286C15.25 13.5387 13.5387 15.25 11.4286 15.25Z" stroke="#D6D6D6" stroke-width="1.5" stroke-miterlimit="10"/>
<path d="M4.86426 7.99997C4.86426 6.26836 6.26836 4.86426 7.99997 4.86426C9.73159 4.86426 11.1357 6.26836 11.1357 7.99997C11.1357 9.73159 9.73159 11.1357 7.99997 11.1357C6.26836 11.1357 4.86426 9.73159 4.86426 7.99997Z" stroke="#D6D6D6" stroke-width="1.5" stroke-miterlimit="10"/>
<path d="M11.9143 3.32373C11.4091 3.32373 11 3.73287 11 4.23802C11 4.74316 11.4091 5.1523 11.9143 5.1523C12.4194 5.1523 12.8286 4.74316 12.8286 4.23802C12.8286 3.73287 12.4194 3.32373 11.9143 3.32373Z" fill="#D6D6D6"/>
</svg>
