<svg width="14" height="16" viewBox="0 0 14 16" fill="none" xmlns="http://www.w3.org/2000/svg">
<path d="M12.2566 3.42183C12.1475 3.36602 12.0414 3.30483 11.9386 3.23851C11.6395 3.04267 11.3653 2.81191 11.1219 2.55121C10.5128 1.86091 10.2853 1.16061 10.2015 0.6703H10.2049C10.1349 0.26332 10.1638 0 10.1682 0H7.39407V10.6255C7.39407 10.7681 7.39407 10.9091 7.38801 11.0484C7.38801 11.0658 7.38633 11.0818 7.38532 11.1004C7.38532 11.1081 7.38532 11.1161 7.38364 11.1241V11.1301C7.35439 11.5114 7.23101 11.8796 7.02435 12.2026C6.81769 12.5255 6.53408 12.7931 6.19846 12.982C5.84868 13.1791 5.45307 13.2825 5.05064 13.282C3.75813 13.282 2.71059 12.2381 2.71059 10.9488C2.71059 9.65952 3.75813 8.61557 5.05064 8.61557C5.29531 8.61535 5.53847 8.65348 5.7711 8.72856L5.77447 5.9307C5.06826 5.84035 4.35082 5.89594 3.6674 6.09398C2.98397 6.29201 2.3494 6.62819 1.80371 7.08131C1.32555 7.49283 0.923569 7.98383 0.615842 8.53224C0.498738 8.73223 0.056907 9.53586 0.0034027 10.8401C-0.0302478 11.5804 0.194201 12.3474 0.30121 12.6644V12.671C0.368511 12.8577 0.629302 13.4947 1.05431 14.0316C1.39702 14.4624 1.80192 14.8407 2.25597 15.1546V15.1479L2.2627 15.1546C3.60569 16.0585 5.09473 15.9992 5.09473 15.9992C5.35249 15.9889 6.21596 15.9992 7.19654 15.5389C8.28412 15.0286 8.90329 14.2683 8.90329 14.2683C9.29885 13.814 9.61338 13.2963 9.83339 12.7374C10.0844 12.0837 10.1682 11.2998 10.1682 10.9865V5.3494C10.2019 5.3694 10.6501 5.66305 10.6501 5.66305C10.6501 5.66305 11.2958 6.07303 12.3033 6.34002C13.0262 6.53001 14 6.57001 14 6.57001V3.84214C13.6588 3.87881 12.9659 3.77215 12.2566 3.42183Z" fill="#D6D6D6"/>
</svg>
