<svg width="1440" height="814" viewBox="0 0 1440 814" fill="none" xmlns="http://www.w3.org/2000/svg">
<g opacity="0.15">
<mask id="mask0_168_2465" style="mask-type:luminance" maskUnits="userSpaceOnUse" x="0" y="0" width="1440" height="814">
<path d="M1440 0H0V814H1440V0Z" fill="white"/>
</mask>
<g mask="url(#mask0_168_2465)">
<path d="M407.025 -21.8252L331.725 99.8248L256.5 221.475H92.1L16.8 343.2H-147.6L-72.375 221.475L2.92502 99.8248H167.325L242.55 -21.8252H407.025Z" fill="#14295E"/>
<path d="M510.075 343.2L434.85 464.85L359.55 586.5H193.425L268.65 464.85H105.975L181.2 343.2L256.5 221.475H419.175L343.95 343.2H510.075Z" fill="#14295E"/>
<path d="M1234.27 -21.8252L1158.97 99.8248L1083.75 221.475H751.425L826.725 99.8248H992.85L1068.15 -21.8252H1234.27Z" fill="#14295E"/>
<path d="M1823.55 99.8252L1748.32 221.475H1416L1340.77 343.2L1265.55 464.85H1099.42L1174.65 343.2L1249.88 221.475L1325.17 99.8252H1823.55Z" fill="#14295E"/>
<path d="M1597.8 464.85L1522.57 586.5L1447.27 708.15L1372.05 829.8H1039.8L1115.02 708.15H1281.15L1356.45 586.5L1431.67 464.85H1597.8Z" fill="#14295E"/>
<path d="M933.525 586.5L858.225 708.15L783 829.8H284.55L359.775 708.15H692.1L767.325 586.5H933.525Z" fill="#14295E"/>
</g>
</g>
</svg>
